<svg xmlns="http://www.w3.org/2000/svg" viewBox="0 0 192.696 192.696"><path d="M159.366 192.422c-7.064 0-12.811-5.747-12.811-12.812 0-2.501.72-4.837 1.964-6.811H87.932a12.735 12.735 0 0 1 1.964 6.811c0 7.064-5.747 12.812-12.811 12.812s-12.811-5.747-12.811-12.812c0-2.541.744-4.911 2.024-6.905-6.165-.71-11.312-5.347-12.557-11.544L32.983 57.748l-.003-.017-3.598-18.209c-1.054-5.104-5.625-8.826-10.862-8.826H3a3 3 0 1 1 0-6h15.521c8.069 0 15.111 5.735 16.743 13.639l3.127 15.823h10.633l25.063-17.822V18.608a3 3 0 0 1 3-3h47.593l-.846-2.296a3 3 0 0 1 2.019-3.929l32.718-9a3 3 0 0 1 3.7 2.141l13.366 51.635h14.06a2.997 2.997 0 0 1 2.945 3.568l-13.354 69.332c-2.264 11.752-12.593 20.282-24.562 20.282H57.088l2.538 12.64a8.515 8.515 0 0 0 8.326 6.82h91.415c7.064 0 12.811 5.747 12.811 12.811-.001 7.063-5.748 12.81-12.812 12.81zm0-19.622a6.82 6.82 0 0 0-6.811 6.811 6.82 6.82 0 0 0 6.811 6.812 6.82 6.82 0 0 0 6.811-6.812 6.818 6.818 0 0 0-6.811-6.811zm-82.28 0a6.82 6.82 0 0 0-6.811 6.811c0 3.756 3.056 6.812 6.811 6.812s6.811-3.056 6.811-6.812c-.001-3.756-3.056-6.811-6.811-6.811zm-20.919-31.46h98.56c9.097 0 16.949-6.483 18.67-15.417l12.667-65.765h-12.685a2.948 2.948 0 0 1-.133 0h-63.527a1.61 1.61 0 0 1-.139 0H84.052a1.634 1.634 0 0 1-.14 0H39.599l16.568 81.182zm104.574-87.182h8.698L157.225 6.975l-26.633 7.326.481 1.307h23.241a3 3 0 0 1 3 3v31.576l3.427 3.974zm-33.487 0h25.564l-.741-.859a2.82 2.82 0 0 1-.071-.083l-10.592-12.284-14.16 13.226zm-13.52 0h4.73L139.6 34.416a3.043 3.043 0 0 1 2.209-.804 3.005 3.005 0 0 1 2.11 1.037l7.395 8.576V21.608H129.05a1.565 1.565 0 0 1-.137 0H80.086V54.157h1.728L90.133 29c.252-.764.801-1.394 1.523-1.749s1.556-.405 2.315-.141l22.719 7.941a3 3 0 0 1 1.873 3.73l-4.829 15.377zm-25.601 0h19.312l4.522-14.401-17.096-5.976-6.738 20.377zm-28.756 0h14.709v-10.46l-14.709 10.46z"/></svg>