<svg xmlns="http://www.w3.org/2000/svg" viewBox="0 0 1000 1000"><path d="M500 10C229.8 10 10 229.8 10 500s219.8 490 490 490 490-219.8 490-490S770.2 10 500 10zm0 931C256.8 941 59 743.2 59 500S256.8 59 500 59s441 197.8 441 441-197.8 441-441 441z"/><path d="M188.3 480.9c0-9-7.3-16.3-16.3-16.3H84.9c-9 0-16.3 7.3-16.3 16.3s7.3 16.3 16.3 16.3H172c9 .1 16.3-7.2 16.3-16.3zM789.2 480.9c0 9 7.3 16.3 16.3 16.3h87.1c9 0 16.3-7.3 16.3-16.3s-7.3-16.3-16.3-16.3h-87.1c-8.9 0-16.3 7.3-16.3 16.3zM489.8 199.5c9 0 16.3-7.3 16.3-16.3V96.1c0-9-7.3-16.3-16.3-16.3s-16.3 7.3-16.3 16.3v87.1c0 9 7.3 16.3 16.3 16.3zM489.8 800.4c-9 0-16.3 7.3-16.3 16.3v87.1c0 9 7.3 16.3 16.3 16.3s16.3-7.3 16.3-16.3v-87.1c0-8.9-7.3-16.3-16.3-16.3z"/><circle cx="172" cy="308.1" r="19.1"/><circle cx="824.6" cy="308.1" r="19.1"/><circle cx="295.8" cy="158.7" r="19.1"/><circle cx="683.8" cy="158.7" r="19.1"/><circle cx="173.7" cy="691.9" r="19.1"/><path d="M826.3 672.8c10.5 0 19.1 8.5 19.1 19.1s-8.5 19.1-19.1 19.1-19-8.5-19-19.1 8.5-19.1 19-19.1zM297.5 822.2c10.5 0 19.1 8.5 19.1 19.1s-8.5 19-19.1 19-19.1-8.5-19.1-19 8.6-19.1 19.1-19.1zM685.4 822.2c10.5 0 19.1 8.5 19.1 19.1s-8.5 19-19.1 19-19-8.5-19-19 8.5-19.1 19-19.1zM438.3 206.8c-2.9-8.5-12.2-13.1-20.8-10.1-8.5 2.9-13.1 12.2-10.1 20.8l98.3 286-217.2 211.8c-6.5 6.3-6.6 16.7-.3 23.1 3.2 3.3 7.4 4.9 11.7 4.9 4.1 0 8.2-1.5 11.4-4.6l224.6-219c4.5-4.4 6.1-11 4.1-17L438.3 206.8z"/></svg>