<svg xmlns="http://www.w3.org/2000/svg" viewBox="0 0 50 50"><path style="text-indent:0;text-align:start;line-height:normal;text-transform:none;block-progression:tb;-inkscape-font-specification:Sans" d="M14 2c-2.75 0-5 2.25-5 5s2.25 5 5 5 5-2.25 5-5-2.25-5-5-5zm21 0c-2.75 0-5 2.25-5 5s2.25 5 5 5 5-2.25 5-5-2.25-5-5-5zM14 4c1.669 0 3 1.331 3 3s-1.331 3-3 3-3-1.331-3-3 1.331-3 3-3zm21 0c1.669 0 3 1.331 3 3s-1.331 3-3 3-3-1.331-3-3 1.331-3 3-3zM9.5 13C6.476 13 4 15.477 4 18.5v12.313A1 1 0 0 0 4 31a1 1 0 0 0 .031.281C4.18 32.793 5.452 34 7 34c.353 0 .684-.073 1-.188v11.532A2.664 2.664 0 0 0 10.656 48h1.688c.644 0 1.192-.3 1.656-.688.464.389 1.011.688 1.656.688h1.688A2.664 2.664 0 0 0 20 45.344v-6.532c.316.115.647.188 1 .188v6.5c0 1.37 1.13 2.5 2.5 2.5h3c1.37 0 2.5-1.13 2.5-2.5V39c.353 0 .684-.073 1-.188V45c0 1.645 1.355 3 3 3 .767 0 1.467-.3 2-.781A2.982 2.982 0 0 0 37 48c1.645 0 3-1.355 3-3v-8h2.594c.656 0 1.277-.339 1.625-.875a1 1 0 0 0 0-.031 2.154 2.154 0 0 0 .25-1.782 1 1 0 0 0 0-.03L44.062 33c1.014 0 1.928-.494 2.407-1.281.478-.788.555-1.775.25-2.719-.92-2.837-4.032-12.313-4.032-12.313-.187-.578-.54-1.433-1.28-2.218A4.669 4.669 0 0 0 38 13h-1.937A1 1 0 0 0 36 13h-4a4.658 4.658 0 0 0-3.406 1.469 1.006 1.006 0 1 0 1.468 1.375C30.517 15.36 31.075 15 32 15h4a1 1 0 0 0 .094 0H38c.924 0 1.483.362 1.938.844.454.481.76 1.113.874 1.469 0 0 3.084 9.452 4 12.28.16.495.094.858-.03 1.063-.125.205-.291.344-.72.344a.975.975 0 0 1-.906-.625c-.003-.01.003-.022 0-.031a1 1 0 0 0-.093-.282l-2.782-8.375A1 1 0 0 0 39.188 21a1 1 0 0 0-.813 1.313l2.813 8.437a1 1 0 0 0 .093.25l1.282 3.906v.032c.002.03-.027.045-.032.062h-7.468A1 1 0 0 0 35 35h-3v-6c0-2.197-1.803-4-4-4h-6c-2.197 0-4 1.803-4 4v1.844a1 1 0 0 0 0 .093v14.407a.635.635 0 0 1-.656.656h-1.688a.634.634 0 0 1-.656-.656V32.656a1 1 0 0 0-1.125-1 1 1 0 0 0-.875 1v12.688a.635.635 0 0 1-.656.656h-1.688a.634.634 0 0 1-.656-.656V21a1 1 0 0 0-1.094-1.031 1 1 0 0 0-.125.031A1 1 0 0 0 8 21v9.844a1 1 0 0 0 0 .093V31c0 .565-.435 1-1 1a.985.985 0 0 1-1-.938A1 1 0 0 0 6 31a1 1 0 0 0 0-.188V18.5C6 16.561 7.56 15 9.5 15h9c.749 0 1.432.227 2 .625A1 1 0 1 0 21.656 14a5.503 5.503 0 0 0-3.156-1h-9zM25 16c-2.197 0-4 1.803-4 4s1.803 4 4 4 4-1.803 4-4-1.803-4-4-4zm0 2c1.116 0 2 .884 2 2s-.884 2-2 2-2-.884-2-2 .884-2 2-2zm-3 9h6c1.117 0 2 .883 2 2v6.813a1 1 0 0 0 0 .093V36c0 .565-.435 1-1 1h-1a1 1 0 0 0-1 1v7.5c0 .287-.213.5-.5.5h-3a.487.487 0 0 1-.5-.5V38a1 1 0 0 0-1-1h-1c-.565 0-1-.435-1-1v-7c0-1.117.883-2 2-2zm10 10h2v8c0 .565-.435 1-1 1s-1-.435-1-1v-8zm4 0h2v8c0 .565-.435 1-1 1s-1-.435-1-1v-8z"/></svg>